# AST/ASF file generated using VICON BodyLanguage
# -----------------------------------------------
:version 1.10
:name VICON
:units
  mass 1.0
  length 0.45
  angle deg
:documentation
   .ast/.asf automatically generated from VICON data using
   VICON BodyBuilder and BodyLanguage model FoxedUp or BRILLIANT.MOD
:root
   order TX TY TZ RX RY RZ
   axis XYZ
   position 0 0 0  
   orientation 0 0 0 
:bonedata
  begin
     id 1 
     name lhipjoint
     direction 0.567725 -0.736092 0.368589 
     length 2.42353 
     axis 0 0 0  XYZ
  end
  begin
     id 2 
     name lfemur
     direction 0.34202 -0.939693 0  
     length 7.24894  
     axis 0 0 20  XYZ
    dof rx ry rz
    limits (-160.0 20.0)
           (-70.0 70.0)
           (-60.0 70.0)
  end
  begin
     id 3 
     name ltibia
     direction 0.34202 -0.939693 0   
     length 7.6997   
     axis 0 0 20   XYZ
    dof rx
    limits (-10.0 170.0)
  end
  begin
     id 4 
     name lfoot
     direction 0.100767 -0.276854 0.955614   
     length 2.37556   
     axis -90 7.62852e-016 20   XYZ
    dof rx rz
    limits (-45.0 90.0)
           (-70.0 20.0)
  end
  begin
     id 5 
     name ltoes
     direction 1.53592e-011 -4.21894e-011 1   
     length 1.18363   
     axis -90 7.62852e-016 20   XYZ
    dof rx
    limits (-90.0 20.0)
  end
  begin
     id 6 
     name rhipjoint
     direction -0.556459 -0.742938 0.372017   
     length 2.4012  
     axis 0 0 0  XYZ 
  end
  begin
     id 7 
     name rfemur
     direction -0.34202 -0.939693 0   
     length 7.5119   
     axis 0 0 -20   XYZ
    dof rx ry rz
    limits (-160.0 20.0)
           (-70.0 70.0)
           (-70.0 60.0)
  end
  begin
     id 8 
     name rtibia
     direction -0.34202 -0.939693 0   
     length 7.50155   
     axis 0 0 -20   XYZ
    dof rx
    limits (-10.0 170.0)
 end
 begin
     id 9 
     name rfoot
     direction -0.118427 -0.325376 0.938139   
     length 2.32487  
     axis -90 -7.62852e-016 -20   XYZ
    dof rx rz
    limits (-45.0 90.0)
           (-20.0 70.0)
  end
  begin
     id 10 
     name rtoes
     direction -1.53525e-011 -4.21868e-011 1   
     length 1.15233   
     axis -90 -7.62852e-016 -20   XYZ
    dof rx
    limits (-90.0 20.0)
  end
  begin
     id 11 
     name lowerback
     direction 0.0287568 0.999577 -0.00434502   
     length 2.15243   
     axis 0 0 0   XYZ
    dof rx ry rz
    limits (-20.0 45.0)
           (-30.0 30.0)
           (-30.0 30.0)
  end
  begin
     id 12 
     name upperback
     direction 0.0294009 0.99956 0.00404628   
     length 2.15427   
     axis 0 0 0   XYZ
    dof rx ry rz
    limits (-20.0 45.0)
           (-30.0 30.0)
           (-30.0 30.0)
  end
  begin
     id 13 
     name thorax
     direction 0.0151014 0.999868 0.0059419   
     length 2.14898   
     axis 0 0 0   XYZ
    dof rx ry rz
    limits (-20.0 45.0)
           (-30.0 30.0)
           (-30.0 30.0)
  end
  begin
     id 14 
     name lowerneck
     direction -0.0249197 0.989906 0.139515   
     length 1.6861   
     axis 0 0 0   XYZ
    dof rx ry rz
    limits (-20.0 45.0)
           (-30.0 30.0)
           (-30.0 30.0)
  end
  begin
     id 15 
     name upperneck
     direction 0.0438463 0.988795 -0.142693   
     length 1.71276   
     axis 0 0 0   XYZ
    dof rx ry rz
    limits (-20.0 45.0)
           (-30.0 30.0)
           (-30.0 30.0)
  end
  begin
     id 16
     name head
     direction 0.0148499 0.997845 -0.0639186  
     length 1.7209  
     axis 0 0 0   XYZ
    dof rx ry rz
    limits (-20.0 45.0)
           (-30.0 30.0)
           (-30.0 30.0)
  end
  begin
     id 17 
     name lclavicle
     direction 0.940298 0.323464 -0.105876  
     length 3.9048  
     axis 0 0 0   XYZ
    dof ry rz
    limits (-20.0 10.0)
           (0.0 20.0)
  end
  begin
     id 18 
     name lhumerus
     direction 1 -4.48954e-011 -4.9675e-028   
     length 4.6851   
     axis 180 -30 -90   XYZ
    dof rx ry rz
    limits (-60.0 90.0)
           (-90.0 90.0)
           (-90.0 90.0)
  end
  begin
     id 19
     name lradius
     direction 1 -4.48992e-011 -1.03359e-026   
     length 3.39626   
     axis 180 -30 -90   XYZ
    dof rx
    limits (-10.0 170.0)
  end
  begin
     id 20
     name lwrist
     direction 1 -4.48906e-011 -1.67336e-026   
     length 1.69813   
     axis 9.90442e-015 90 90   XYZ
    dof ry
    limits (-180.0 0.0)
 end
  begin
     id 21 
     name lhand
     direction 1 -4.49006e-011 -3.34673e-026   
     length 0.486078   
     axis 2.1355e-014 90 90   XYZ
    dof rx rz
    limits (-90.0 90.0)
           (-45.0 45.0)
  end
  begin
     id 22 
     name lfingers
     direction 1 -4.48992e-011 -6.69345e-026   
     length 0.391889   
     axis 4.27099e-014 90 90   XYZ
    dof rx
    limits (0.0 90.0)
  end
  begin
     id 23
     name lthumb
     direction 0.707107 -6.34926e-011 0.707107   
     length 0.562676   
     axis -90 45 2.85299e-015   XYZ
    dof rx rz
    limits (-45.0 45.0)
           (-45.0 45.0)
  end
  begin
     id 24 
     name rclavicle
     direction -0.882459 0.414895 -0.221648   
     length 3.44646  
     axis 0 0 0   XYZ 
    dof ry rz
    limits (-10.0 20.0)
           (-20.0 0.0)
  end
  begin
     id 25 
     name rhumerus
     direction -1 -4.48962e-011 -2.37984e-027  
     length 5.55576   
     axis 180 30 90   XYZ
    dof rx ry rz
    limits (-90.0 60.0)
           (-90.0 90.0)
           (-90.0 90.0)
  end
  begin
     id 26 
     name rradius
     direction -1 -4.48982e-011 -6.86791e-027   
     length 3.32774   
     axis 180 30 90   XYZ
    dof rx
    limits (-10.0 170.0)
  end
  begin
     id 27 
     name rwrist
     direction -1 -4.48961e-011 -1.67336e-026   
     length 1.66387   
     axis 9.90442e-015 -90 -90   XYZ
    dof ry
    limits (-180.0 0.0)
  end
  begin
     id 28
     name rhand
     direction -1 -4.4897e-011 -3.34673e-026   
     length 0.507628   
     axis 2.1355e-014 -90 -90   XYZ
    dof rx rz
    limits (-90.0 90.0)
           (-45.0 45.0)
  end
  begin
     id 29
     name rfingers
     direction -1 -4.48854e-011 -6.69345e-026   
     length 0.409263   
     axis 4.27099e-014 -90 -90   XYZ
    dof rx
    limits (0.0 90.0)
  end
  begin
     id 30
     name rthumb
     direction -0.707107 -6.34913e-011 0.707107   
     length 0.587622   
     axis -90 -45 -2.85299e-015   XYZ
    dof rx rz
    limits (-45.0 45.0)
           (-45.0 45.0)
  end
:hierarchy
  begin
    root lhipjoint rhipjoint lowerback
    lhipjoint lfemur
    lfemur ltibia
    ltibia lfoot
    lfoot ltoes
    rhipjoint rfemur
    rfemur rtibia
    rtibia rfoot
    rfoot rtoes
    lowerback upperback
    upperback thorax
    thorax lowerneck lclavicle rclavicle
    lowerneck upperneck
    upperneck head
    lclavicle lhumerus
    lhumerus lradius
    lradius lwrist
    lwrist lhand lthumb
    lhand lfingers
    rclavicle rhumerus
    rhumerus rradius
    rradius rwrist
    rwrist rhand rthumb
    rhand rfingers
  end

#!OML:ASF E:\motion texture\Top Level 1\Subject 1\Session 1\male.ASF
:FULLY-SPECIFIED
:DEGREES
49
root 27.0173 17.2454 5.88274 -9.3224 -82.5249 11.96
lowerback 2.46499 -3.97685 -4.42683
upperback -2.44784 -5.45633 1.75034
thorax -3.32762 -2.59307 4.5475
lowerneck -19.9285 -3.86699 -6.34715
upperneck 14.9461 -5.15139 8.37872
head 8.30851 -1.97318 3.19236
rclavicle -3.01345e-014 5.96354e-015
rhumerus -43.4046 -4.75165 -78.3169
rradius 38.4212
rwrist 4.63741
rhand -8.45646 -13.1204
rfingers 7.12502
rthumb 17.4696 -42.3555
lclavicle -3.01345e-014 5.96354e-015
lhumerus -21.127 -11.3269 92.0073
lradius 55.6439
lwrist -6.6636
lhand -14.4284 11.2542
lfingers 7.12502
lthumb 11.716 40.9066
rfemur -55.2742 -9.81778 18.6777
rtibia 58.5642
rfoot 27.9794 -13.1592
rtoes 24.3445
lfemur 10.3353 -4.55497 -22.7431
ltibia 20.0427
lfoot -17.0286 -6.52466
ltoes -11.3836
50
root 26.8266 17.2255 5.85481 -7.62685 -82.6087 10.3959
lowerback 1.99081 -3.91422 -4.30595
upperback -2.44163 -5.34693 1.84054
thorax -3.06761 -2.5499 4.53046
lowerneck -19.9217 -3.88083 -6.34492
upperneck 14.9173 -5.16106 8.3417
head 8.29716 -1.98153 3.17781
rclavicle -5.55914e-014 -4.37326e-015
rhumerus -42.8824 -4.12247 -79.0206
rradius 39.3006
rwrist 4.16973
rhand -8.98811 -13.1661
rfingers 7.12502
rthumb 16.9579 -42.4458
lclavicle -5.55914e-014 -4.37326e-015
lhumerus -22.5415 -11.1657 92.184
lradius 55.1918
lwrist -6.97953
lhand -14.2397 11.3953
lfingers 7.12502
lthumb 11.898 41.0372
rfemur -52.7686 -9.56199 18.9734
rtibia 57.3436
rfoot 23.9016 -11.8799
rtoes 18.7186
lfemur 10.2978 -4.58855 -22.2781
ltibia 20.9862
lfoot -16.6509 -6.87822
ltoes -12.8429
51
root 26.6305 17.2088 5.82402 -5.80742 -82.7186 8.69503
lowerback 1.48603 -3.84237 -4.1939
upperback -2.43556 -5.22622 1.93671
thorax -2.79061 -2.50099 4.52335
lowerneck -19.9085 -3.89503 -6.34827
upperneck 14.9154 -5.17191 8.30373
head 8.29395 -1.9908 3.16401
rclavicle -3.10601e-015 3.57812e-015
rhumerus -42.3491 -3.48371 -79.7381
rradius 40.2431
rwrist 3.6805
rhand -9.55957 -13.2169
rfingers 7.12502
rthumb 16.4077 -42.5429
lclavicle -3.10601e-015 3.57812e-015
lhumerus -24.0074 -10.9705 92.3446
lradius 54.659
lwrist -7.31261
lhand -13.9791 11.6194
lfingers 7.12502
lthumb 12.1493 41.2466
rfemur -50.1593 -9.25079 19.3284
rtibia 56.0231
rfoot 18.8546 -10.3951
rtoes 13.2747
lfemur 10.081 -4.56168 -21.7323
ltibia 22.2552
lfoot -16.0778 -7.39916
ltoes -14.4658
52
root 26.4306 17.1952 5.79078 -3.78233 -82.8705 6.77701
lowerback 0.956583 -3.75578 -4.07149
upperback -2.43232 -5.08675 2.03918
thorax -2.50519 -2.44273 4.51681
lowerneck -19.8769 -3.90844 -6.3545
upperneck 14.9368 -5.18156 8.25559
head 8.29502 -2.00094 3.14771
rclavicle 2.79541e-014 -1.35174e-014
rhumerus -41.8063 -2.83078 -80.4753
rradius 41.2568
rwrist 3.14336
rhand -10.1054 -13.2539
rfingers 7.12502
rthumb 15.8821 -42.6225
lclavicle 2.79541e-014 -1.35174e-014
lhumerus -25.5195 -10.7371 92.4815
lradius 54.0375
lwrist -7.66872
lhand -13.6941 11.8579
lfingers 7.12502
lthumb 12.4241 41.4686
rfemur -47.4854 -8.85809 19.74
rtibia 54.5138
rfoot 13.415 -8.77009
rtoes 9.34062
lfemur 9.64135 -4.48048 -21.1012
ltibia 23.8986
lfoot -15.2512 -8.07939
ltoes -16.2603
53
root 26.2289 17.1847 5.75575 -1.38534 -83.0723 4.47039
lowerback 0.434758 -3.64606 -3.90722
upperback -2.43735 -4.91837 2.14652
thorax -2.23879 -2.36976 4.49501
lowerneck -19.832 -3.92423 -6.36421
upperneck 14.9896 -5.19525 8.20052
head 8.30452 -2.01397 3.12943
rclavicle -9.23106e-015 9.54166e-015
rhumerus -41.2583 -2.17715 -81.2327
rradius 42.3505
rwrist 2.55064
rhand -10.5881 -13.3056
rfingers 7.12502
rthumb 15.4173 -42.7107
lclavicle -9.23106e-015 9.54166e-015
lhumerus -27.0662 -10.4709 92.5865
lradius 53.3181
lwrist -8.06864
lhand -13.3691 12.0571
lfingers 7.12502
lthumb 12.7374 41.6486
rfemur -44.7976 -8.36678 20.2155
rtibia 52.746
rfoot 8.2207 -7.24212
rtoes 7.78035
lfemur 8.94621 -4.34364 -20.3688
ltibia 25.9429
lfoot -14.0697 -8.93591
ltoes -18.1124
54
root 26.028 17.1773 5.71976 1.57633 -83.3397 1.57484
lowerback -0.0548209 -3.50204 -3.674
upperback -2.44818 -4.70723 2.25845
thorax -2.00576 -2.2752 4.4446
lowerneck -19.7716 -3.94375 -6.3785
upperneck 15.065 -5.21424 8.13971
head 8.31929 -2.03059 3.10955
rclavicle -1.56667e-014 -2.26615e-014
rhumerus -40.6986 -1.52624 -82.0097
rradius 43.5292
rwrist 1.90712
rhand -10.9713 -13.3624
rfingers 7.12502
rthumb 15.0481 -42.7955
lclavicle -1.56667e-014 -2.26615e-014
lhumerus -28.6302 -10.1754 92.6512
lradius 52.4979
lwrist -8.53174
lhand -13.0752 12.146
lfingers 7.12502
lthumb 13.0207 41.7196
rfemur -42.1677 -7.75511 20.7709
rtibia 50.7114
rfoot 3.81018 -6.04956
rtoes 8.57124
lfemur 7.97364 -4.13881 -19.5248
ltibia 28.3925
lfoot -12.4041 -9.95137
ltoes -19.9217
55
root 25.8307 17.1731 5.68397 5.36505 -83.6783 -2.18024
lowerback -0.489148 -3.31472 -3.34265
upperback -2.45473 -4.44242 2.37365
thorax -1.81085 -2.15404 4.34923
lowerneck -19.7159 -3.97115 -6.39751
upperneck 15.1605 -5.24267 8.07293
head 8.34226 -2.05229 3.08726
rclavicle -8.29926e-015 -3.18055e-015
rhumerus -40.0977 -0.867973 -82.8093
rradius 44.7903
rwrist 1.22251
rhand -11.2341 -13.3611
rfingers 7.12502
rthumb 14.7949 -42.813
lclavicle -8.29926e-015 -3.18055e-015
lhumerus -30.1762 -9.85805 92.6624
lradius 51.5767
lwrist -9.06161
lhand -12.8194 12.0674
lfingers 7.12502
lthumb 13.2673 41.6251
rfemur -39.6801 -7.03632 21.4317
rtibia 48.5069
rfoot 0.27731 -5.29961
rtoes 10.5819
lfemur 6.71176 -3.85174 -18.5653
ltibia 31.2203
lfoot -10.0828 -11.0714
ltoes -21.4369
56
root 25.6397 17.1722 5.64909 10.4911 -84.0839 -7.31742
lowerback -0.829663 -3.07634 -2.87892
upperback -2.45787 -4.11504 2.49662
thorax -1.67756 -2.00182 4.19669
lowerneck -19.6435 -4.00056 -6.42992
upperneck 15.2516 -5.27163 8.01087
head 8.36146 -2.07505 3.06879
rclavicle -1.18153e-014 -6.36111e-015
rhumerus -39.4661 -0.199267 -83.6275
rradius 46.1546
rwrist 0.521127
rhand -11.3557 -13.3427
rfingers 7.12502
rthumb 14.6779 -42.8032
lclavicle -1.18153e-014 -6.36111e-015
lhumerus -31.6862 -9.51543 92.6134
lradius 50.5581
lwrist -9.68082
lhand -12.6094 11.8415
lfingers 7.12502
lthumb 13.4697 41.3859
rfemur -37.3936 -6.21313 22.2362
rtibia 46.2815
rfoot -2.40683 -5.00833
rtoes 12.8758
lfemur 5.16975 -3.46765 -17.4744
ltibia 34.3688
lfoot -6.9198 -12.1898
ltoes -22.3522
57
root 25.4573 17.1745 5.61659 17.5326 -84.5298 -14.4211
lowerback -1.05911 -2.78101 -2.25793
upperback -2.44096 -3.7173 2.6241
thorax -1.59772 -1.81555 3.96888
lowerneck -19.5929 -4.03298 -6.48249
upperneck 15.335 -5.3021 7.97301
head 8.38327 -2.09685 3.06147
rclavicle -2.01518e-014 -2.38542e-014
rhumerus -38.762 0.488016 -84.4624
rradius 47.6129
rwrist -0.154377
rhand -11.378 -13.2656
rfingers 7.12502
rthumb 14.6564 -42.7277
lclavicle -2.01518e-014 -2.38542e-014
lhumerus -33.1184 -9.15736 92.4908
lradius 49.4548
lwrist -10.3818
lhand -12.4681 11.4744
lfingers 7.12502
lthumb 13.6059 41.0098
rfemur -35.3625 -5.32372 23.198
rtibia 44.218
rfoot -4.33743 -5.02926
rtoes 14.833
lfemur 3.36759 -2.97425 -16.2698
ltibia 37.7757
lfoot -2.87126 -13.1355
ltoes -22.4117
58
root 25.2854 17.1797 5.5871 27.3328 -84.9408 -24.3397
lowerback -1.15188 -2.43307 -1.46254
upperback -2.40392 -3.25418 2.76628
thorax -1.58101 -1.5981 3.66614
lowerneck -19.5514 -4.06461 -6.54412
upperneck 15.3915 -5.32775 7.94257
head 8.39771 -2.11611 3.05853
rclavicle -1.80521e-014 1.31198e-014
rhumerus -37.9708 1.21073 -85.3015
rradius 49.1515
rwrist -0.755473
rhand -11.3231 -13.1427
rfingers 7.12502
rthumb 14.7092 -42.6009
lclavicle -1.80521e-014 1.31198e-014
lhumerus -34.4728 -8.77295 92.2975
lradius 48.3083
lwrist -11.1196
lhand -12.3467 11.1095
lfingers 7.12502
lthumb 13.7229 40.637
rfemur -33.5942 -4.38342 24.3259
rtibia 42.455
rfoot -5.67884 -5.22339
rtoes 16.3838
lfemur 1.33419 -2.3779 -14.9512
ltibia 41.3911
lfoot 1.96382 -13.797
ltoes -21.3367
